<svg width="82" height="24" viewBox="0 0 82 24" fill="none" xmlns="http://www.w3.org/2000/svg">
<rect width="82" height="24" rx="5" fill="#69E6A2" fill-opacity="0.2"/>
<path d="M34.328 7.028H35.588V14.984H34.328V7.028ZM28.436 16.748H35.9V17.768H28.436V16.748ZM28.436 14.18H29.684V17.144H28.436V14.18ZM29.672 7.76C30.224 7.76 30.72 7.876 31.16 8.108C31.6 8.34 31.948 8.664 32.204 9.08C32.46 9.488 32.588 9.96 32.588 10.496C32.588 11.024 32.46 11.496 32.204 11.912C31.948 12.328 31.6 12.652 31.16 12.884C30.72 13.116 30.224 13.232 29.672 13.232C29.12 13.232 28.624 13.116 28.184 12.884C27.744 12.652 27.396 12.328 27.14 11.912C26.884 11.496 26.756 11.024 26.756 10.496C26.756 9.96 26.884 9.488 27.14 9.08C27.396 8.664 27.744 8.34 28.184 8.108C28.624 7.876 29.12 7.76 29.672 7.76ZM29.672 8.852C29.352 8.852 29.064 8.92 28.808 9.056C28.552 9.192 28.352 9.384 28.208 9.632C28.064 9.872 27.992 10.16 27.992 10.496C27.992 10.832 28.064 11.124 28.208 11.372C28.352 11.612 28.552 11.8 28.808 11.936C29.064 12.072 29.352 12.14 29.672 12.14C29.992 12.14 30.28 12.072 30.536 11.936C30.792 11.8 30.992 11.612 31.136 11.372C31.288 11.124 31.364 10.832 31.364 10.496C31.364 10.16 31.288 9.872 31.136 9.632C30.992 9.384 30.792 9.192 30.536 9.056C30.28 8.92 29.992 8.852 29.672 8.852ZM37.2911 12.164H47.2031V13.172H37.2911V12.164ZM42.2231 13.976C43.4071 13.976 44.3311 14.152 44.9951 14.504C45.6671 14.848 46.0031 15.34 46.0031 15.98C46.0031 16.612 45.6671 17.1 44.9951 17.444C44.3311 17.796 43.4071 17.972 42.2231 17.972C41.0551 17.972 40.1351 17.796 39.4631 17.444C38.7911 17.1 38.4551 16.612 38.4551 15.98C38.4551 15.34 38.7911 14.848 39.4631 14.504C40.1351 14.152 41.0551 13.976 42.2231 13.976ZM42.2231 14.948C41.6951 14.948 41.2431 14.988 40.8671 15.068C40.4911 15.14 40.2031 15.252 40.0031 15.404C39.8111 15.556 39.7151 15.748 39.7151 15.98C39.7151 16.204 39.8111 16.392 40.0031 16.544C40.2031 16.696 40.4911 16.812 40.8671 16.892C41.2431 16.964 41.6951 17 42.2231 17C42.7671 17 43.2231 16.964 43.5911 16.892C43.9671 16.812 44.2511 16.696 44.4431 16.544C44.6351 16.392 44.7311 16.204 44.7311 15.98C44.7311 15.748 44.6351 15.556 44.4431 15.404C44.2511 15.252 43.9671 15.14 43.5911 15.068C43.2231 14.988 42.7671 14.948 42.2231 14.948ZM41.4071 8.072H42.5231V8.372C42.5231 8.716 42.4551 9.04 42.3191 9.344C42.1831 9.648 41.9871 9.928 41.7311 10.184C41.4751 10.432 41.1711 10.656 40.8191 10.856C40.4671 11.048 40.0711 11.212 39.6311 11.348C39.1991 11.476 38.7311 11.564 38.2271 11.612L37.7831 10.628C38.2151 10.588 38.6151 10.52 38.9831 10.424C39.3591 10.32 39.6951 10.196 39.9911 10.052C40.2871 9.908 40.5391 9.748 40.7471 9.572C40.9551 9.396 41.1151 9.208 41.2271 9.008C41.3471 8.8 41.4071 8.588 41.4071 8.372V8.072ZM41.9711 8.072H43.0871V8.372C43.0871 8.588 43.1431 8.8 43.2551 9.008C43.3671 9.208 43.5271 9.396 43.7351 9.572C43.9431 9.748 44.1951 9.908 44.4911 10.052C44.7951 10.196 45.1311 10.32 45.4991 10.424C45.8751 10.52 46.2791 10.588 46.7111 10.628L46.2671 11.612C45.7631 11.564 45.2911 11.476 44.8511 11.348C44.4191 11.22 44.0231 11.056 43.6631 10.856C43.3111 10.656 43.0071 10.432 42.7511 10.184C42.5031 9.928 42.3111 9.648 42.1751 9.344C42.0391 9.04 41.9711 8.716 41.9711 8.372V8.072ZM38.1911 7.556H46.3031V8.564H38.1911V7.556ZM53.1134 11.528H54.3614V13.184H53.1134V11.528ZM53.7134 7.496C54.2414 7.496 54.7094 7.588 55.1174 7.772C55.5334 7.956 55.8574 8.216 56.0894 8.552C56.3214 8.88 56.4374 9.26 56.4374 9.692C56.4374 10.124 56.3214 10.508 56.0894 10.844C55.8574 11.172 55.5334 11.428 55.1174 11.612C54.7094 11.796 54.2414 11.888 53.7134 11.888C53.1854 11.888 52.7174 11.796 52.3094 11.612C51.9014 11.428 51.5814 11.172 51.3494 10.844C51.1174 10.508 51.0014 10.124 51.0014 9.692C51.0014 9.26 51.1174 8.88 51.3494 8.552C51.5814 8.216 51.9014 7.956 52.3094 7.772C52.7174 7.588 53.1854 7.496 53.7134 7.496ZM53.7134 8.456C53.4174 8.456 53.1494 8.508 52.9094 8.612C52.6774 8.708 52.4974 8.852 52.3694 9.044C52.2414 9.228 52.1774 9.444 52.1774 9.692C52.1774 9.94 52.2414 10.16 52.3694 10.352C52.4974 10.536 52.6774 10.68 52.9094 10.784C53.1494 10.88 53.4174 10.928 53.7134 10.928C54.0174 10.928 54.2854 10.88 54.5174 10.784C54.7494 10.68 54.9294 10.536 55.0574 10.352C55.1934 10.16 55.2614 9.94 55.2614 9.692C55.2614 9.444 55.1934 9.228 55.0574 9.044C54.9294 8.852 54.7494 8.708 54.5174 8.612C54.2854 8.508 54.0174 8.456 53.7134 8.456ZM57.7574 7.028H59.0054V15.404H57.7574V7.028ZM58.5254 10.616H60.5174V11.66H58.5254V10.616ZM51.9134 16.748H59.3894V17.768H51.9134V16.748ZM51.9134 14.696H53.1734V17.192H51.9134V14.696ZM50.5454 13.868L50.4014 12.86C51.0254 12.86 51.7174 12.852 52.4774 12.836C53.2454 12.82 54.0254 12.788 54.8174 12.74C55.6174 12.692 56.3814 12.616 57.1094 12.512L57.2054 13.424C56.4534 13.56 55.6814 13.66 54.8894 13.724C54.0974 13.788 53.3294 13.828 52.5854 13.844C51.8494 13.86 51.1694 13.868 50.5454 13.868ZM63.8285 13.436H65.0645V16.076H63.8285V13.436ZM67.3085 13.424H68.5445V16.064H67.3085V13.424ZM61.1645 15.668H71.1005V16.7H61.1645V15.668ZM62.3405 7.784H69.9245V11.24H63.6005V13.292H62.3645V10.256H68.6765V8.804H62.3405V7.784ZM62.3645 12.764H70.1765V13.772H62.3645V12.764Z" fill="#69E6A2"/>
<path d="M15.5489 6.92705C15.8483 6.00574 17.1517 6.00574 17.4511 6.92705L18.1839 9.18237C18.3177 9.5944 18.7017 9.87336 19.1349 9.87336L21.5063 9.87336C22.475 9.87336 22.8778 11.113 22.0941 11.6824L20.1756 13.0762C19.8251 13.3309 19.6784 13.7822 19.8123 14.1943L20.5451 16.4496C20.8445 17.3709 19.79 18.137 19.0063 17.5676L17.0878 16.1738C16.7373 15.9191 16.2627 15.9191 15.9122 16.1738L13.9937 17.5676C13.21 18.137 12.1555 17.3709 12.4549 16.4496L13.1877 14.1943C13.3216 13.7822 13.1749 13.3309 12.8244 13.0762L10.9059 11.6824C10.1222 11.113 10.525 9.87336 11.4937 9.87336L13.8651 9.87336C14.2983 9.87336 14.6823 9.5944 14.8161 9.18237L15.5489 6.92705Z" fill="#69E6A2"/>
</svg>
