<svg width="90" height="18" viewBox="0 0 90 18" fill="none" xmlns="http://www.w3.org/2000/svg">
<path d="M6.222 15.459C7.096 15.459 7.84733 15.298 8.476 14.976C9.10467 14.6387 9.61833 14.194 10.017 13.642C10.4157 13.0747 10.707 12.4153 10.891 11.664C11.0903 10.8973 11.19 10.077 11.19 9.203C11.19 8.34433 11.0903 7.53933 10.891 6.788C10.707 6.02133 10.4157 5.362 10.017 4.81C9.61833 4.24267 9.10467 3.798 8.476 3.476C7.84733 3.13867 7.096 2.97 6.222 2.97H2.749V14.677C2.749 14.9837 2.81033 15.1907 2.933 15.298C3.05567 15.4053 3.24733 15.459 3.508 15.459H6.222ZM2.91 17.69C2.64933 17.69 2.34267 17.5827 1.99 17.368C1.65267 17.1533 1.36133 16.9157 1.116 16.655C0.870667 16.4097 0.648333 16.1413 0.449 15.85C0.265 15.5433 0.173 15.2827 0.173 15.068V0.739H6.107C7.303 0.739 8.37633 0.946 9.327 1.36C10.2777 1.75867 11.0827 2.326 11.742 3.062C12.4013 3.798 12.9073 4.68733 13.26 5.73C13.6127 6.77267 13.789 7.93033 13.789 9.203C13.789 10.491 13.6127 11.6563 13.26 12.699C12.9073 13.7417 12.4013 14.631 11.742 15.367C11.0827 16.103 10.2777 16.6703 9.327 17.069C8.37633 17.483 7.303 17.69 6.107 17.69H2.91ZM20.9145 15.873C21.4972 15.873 22.0185 15.7657 22.4785 15.551C22.9385 15.321 23.3295 15.0143 23.6515 14.631C23.9735 14.2323 24.2188 13.7723 24.3875 13.251C24.5562 12.7297 24.6405 12.1777 24.6405 11.595C24.6405 11.0123 24.5562 10.468 24.3875 9.962C24.2188 9.44067 23.9735 8.98833 23.6515 8.605C23.3295 8.20633 22.9385 7.892 22.4785 7.662C22.0185 7.432 21.4972 7.317 20.9145 7.317C20.3318 7.317 19.8105 7.432 19.3505 7.662C18.8905 7.892 18.4995 8.20633 18.1775 8.605C17.8708 8.98833 17.6332 9.44067 17.4645 9.962C17.2958 10.468 17.2115 11.0123 17.2115 11.595C17.2115 12.1777 17.2958 12.7297 17.4645 13.251C17.6332 13.7723 17.8708 14.2323 18.1775 14.631C18.4995 15.0143 18.8905 15.321 19.3505 15.551C19.8105 15.7657 20.3318 15.873 20.9145 15.873ZM20.9145 17.989C19.9332 17.989 19.0592 17.8203 18.2925 17.483C17.5258 17.161 16.8742 16.7163 16.3375 16.149C15.8162 15.5663 15.4098 14.884 15.1185 14.102C14.8425 13.32 14.7045 12.4843 14.7045 11.595C14.7045 10.7057 14.8425 9.87767 15.1185 9.111C15.4098 8.329 15.8162 7.64667 16.3375 7.064C16.8742 6.48133 17.5258 6.02133 18.2925 5.684C19.0592 5.34667 19.9332 5.178 20.9145 5.178C21.8958 5.178 22.7698 5.34667 23.5365 5.684C24.3032 6.02133 24.9548 6.48133 25.4915 7.064C26.0282 7.64667 26.4345 8.329 26.7105 9.111C27.0018 9.87767 27.1475 10.7057 27.1475 11.595C27.1475 12.4843 27.0018 13.32 26.7105 14.102C26.4345 14.884 26.0282 15.5663 25.4915 16.149C24.9548 16.7163 24.3032 17.161 23.5365 17.483C22.7698 17.8203 21.8958 17.989 20.9145 17.989ZM39.5224 7.639V14.493C39.5224 14.907 39.6067 15.1907 39.7754 15.344C39.9594 15.482 40.2354 15.551 40.6034 15.551H42.2824C42.4971 15.551 42.6504 15.6277 42.7424 15.781C42.8344 15.9343 42.8804 16.218 42.8804 16.632C42.8804 17.0613 42.8344 17.345 42.7424 17.483C42.6504 17.621 42.4971 17.69 42.2824 17.69H40.0054C39.5761 17.69 39.1774 17.6363 38.8094 17.529C38.4414 17.4217 38.1271 17.2453 37.8664 17C37.6057 16.77 37.3987 16.4633 37.2454 16.08C37.0921 15.6967 37.0154 15.229 37.0154 14.677V7.639H34.5544V5.5H37.0154V1.981H39.5224V5.5H42.3744C42.7577 5.5 42.9494 5.86033 42.9494 6.581C42.9494 6.97967 42.9034 7.25567 42.8114 7.409C42.7194 7.56233 42.5737 7.639 42.3744 7.639H39.5224ZM52.4198 9.364C52.4198 8.68933 52.1438 8.18333 51.5918 7.846C51.0552 7.49333 50.3882 7.317 49.5908 7.317C49.2535 7.317 48.9162 7.363 48.5788 7.455C48.2415 7.547 47.9348 7.66967 47.6588 7.823C47.3982 7.961 47.1835 8.12967 47.0148 8.329C46.8462 8.513 46.7618 8.70467 46.7618 8.904V17.368C46.7618 17.5673 46.6468 17.7053 46.4168 17.782C46.1868 17.8587 45.8878 17.897 45.5198 17.897C45.1365 17.897 44.8298 17.8587 44.5998 17.782C44.3698 17.7053 44.2548 17.5673 44.2548 17.368V0.255999H46.7618V6.581C46.8998 6.397 47.0915 6.22067 47.3368 6.052C47.5975 5.868 47.8965 5.71467 48.2338 5.592C48.5712 5.46933 48.9315 5.36967 49.3148 5.293C49.6982 5.21633 50.0892 5.178 50.4878 5.178C51.1932 5.178 51.8142 5.30067 52.3508 5.546C52.9028 5.776 53.3705 6.098 53.7538 6.512C54.1372 6.91067 54.4285 7.37833 54.6278 7.915C54.8272 8.45167 54.9268 9.019 54.9268 9.617V17.368C54.9268 17.5673 54.8118 17.7053 54.5818 17.782C54.3518 17.8587 54.0528 17.897 53.6848 17.897C53.3015 17.897 52.9948 17.8587 52.7648 17.782C52.5348 17.7053 52.4198 17.5673 52.4198 17.368V9.364ZM65.2862 10.537C65.2248 9.50967 64.9028 8.72 64.3202 8.168C63.7375 7.60067 62.9862 7.317 62.0662 7.317C61.5295 7.317 61.0618 7.409 60.6632 7.593C60.2798 7.777 59.9502 8.02233 59.6742 8.329C59.4135 8.62033 59.2065 8.96533 59.0532 9.364C58.8998 9.74733 58.8078 10.1383 58.7772 10.537H65.2862ZM63.1012 17.989C62.1198 17.989 61.2075 17.8587 60.3642 17.598C59.5362 17.3527 58.8155 16.9693 58.2022 16.448C57.5888 15.9267 57.1058 15.2673 56.7532 14.47C56.4158 13.6573 56.2472 12.699 56.2472 11.595C56.2472 10.6137 56.3928 9.72433 56.6842 8.927C56.9908 8.12967 57.3972 7.455 57.9032 6.903C58.4245 6.351 59.0378 5.92933 59.7432 5.638C60.4638 5.33133 61.2382 5.178 62.0662 5.178C63.0782 5.178 63.9522 5.35433 64.6882 5.707C65.4242 6.05967 66.0222 6.54267 66.4822 7.156C66.9575 7.754 67.3025 8.45933 67.5172 9.272C67.7472 10.0693 67.8622 10.9203 67.8622 11.825C67.8622 12.147 67.7855 12.3847 67.6322 12.538C67.4788 12.676 67.2795 12.745 67.0342 12.745H58.8002C58.8462 13.2817 58.9918 13.7493 59.2372 14.148C59.4825 14.5313 59.7968 14.8533 60.1802 15.114C60.5635 15.3593 61.0005 15.5433 61.4912 15.666C61.9818 15.7887 62.4878 15.85 63.0092 15.85C63.5458 15.85 64.0518 15.7887 64.5272 15.666C65.0025 15.5433 65.4625 15.4053 65.9072 15.252C66.1065 15.1753 66.2675 15.183 66.3902 15.275C66.5282 15.3517 66.6815 15.597 66.8502 16.011C67.0188 16.4097 67.0878 16.678 67.0572 16.816C67.0265 16.954 66.9115 17.0767 66.7122 17.184C66.5128 17.3067 66.2675 17.414 65.9762 17.506C65.6848 17.6133 65.3705 17.6977 65.0332 17.759C64.7112 17.8357 64.3815 17.8893 64.0442 17.92C63.7068 17.966 63.3925 17.989 63.1012 17.989ZM89.7823 7.8V14.47C89.7823 14.953 89.3913 15.781 88.6323 16.517C87.8273 17.253 87.0223 17.69 86.4473 17.69H84.0553C78.7193 17.69 75.2923 14.447 75.2923 9.042C75.2923 3.407 79.4553 0.417 84.3083 0.417C86.1943 0.417 87.6203 0.761999 88.7243 1.268C89.3453 1.544 89.3223 1.843 88.9313 2.786C88.5173 3.775 88.2873 3.913 87.7353 3.729C86.7003 3.453 85.5963 3.223 84.3313 3.223C80.6053 3.223 78.4663 5.822 78.4663 9.042C78.4663 12.469 80.5133 14.884 84.0323 14.884H86.1713C86.4933 14.884 86.6083 14.723 86.6083 14.47V10.606H82.6983V7.8H89.7823Z" fill="#69E6A2"/>
</svg>
