<svg width="21" height="25" viewBox="0 0 21 25" fill="none" xmlns="http://www.w3.org/2000/svg">
<path d="M7.52368 3.7868L7.7365 4.50597L8.22184 4.36235L8.27024 3.85853L7.52368 3.7868ZM13.5029 3.7868L12.7564 3.85853L12.8048 4.36235L13.2901 4.50597L13.5029 3.7868ZM18.5133 10.5H17.7633V10.5L18.5133 10.5ZM18.5133 17.3333L17.7633 17.3333V17.5516L17.8806 17.7359L18.5133 17.3333ZM19.8686 19.4631L20.5014 19.0605V19.0605L19.8686 19.4631ZM13.0953 21V20.25H12.3687L12.3456 20.9762L13.0953 21ZM7.93124 21L8.68086 20.9762L8.65783 20.25H7.93124V21ZM1.15795 19.4631L0.525201 19.0605H0.525201L1.15795 19.4631ZM2.2186 17.7964L2.85135 18.199L2.85135 18.199L2.2186 17.7964ZM2.51331 17.4974L2.92498 18.1243L3.26331 17.9021V17.4974H2.51331ZM10.5133 0.25C9.48957 0.25 8.59299 0.723461 7.9486 1.36266C7.30894 1.99717 6.86017 2.85068 6.77712 3.71507L8.27024 3.85853C8.31485 3.39421 8.57478 2.85432 9.00496 2.4276C9.43041 2.00558 9.96481 1.75 10.5133 1.75V0.25ZM14.2495 3.71507C14.1664 2.85068 13.7177 1.99717 13.078 1.36266C12.4336 0.72346 11.537 0.25 10.5133 0.25V1.75C11.0618 1.75 11.5962 2.00558 12.0216 2.4276C12.4518 2.85432 12.7118 3.39421 12.7564 3.85853L14.2495 3.71507ZM19.2633 10.5C19.2633 6.98392 16.9224 4.01654 13.7157 3.06763L13.2901 4.50597C15.8771 5.2715 17.7633 7.66645 17.7633 10.5H19.2633ZM19.2633 17.3333L19.2633 10.5L17.7633 10.5L17.7633 17.3333L19.2633 17.3333ZM17.8806 17.7359L19.2359 19.8658L20.5014 19.0605L19.1461 16.9306L17.8806 17.7359ZM19.2359 19.8658C19.3418 20.0322 19.2222 20.25 19.025 20.25V21.75C20.4059 21.75 21.2427 20.2255 20.5014 19.0605L19.2359 19.8658ZM19.025 20.25H13.0953V21.75H19.025V20.25ZM10.5133 24.2499C12.3183 24.2499 13.7881 22.8154 13.8449 21.0238L12.3456 20.9762C12.3144 21.9609 11.5058 22.7499 10.5133 22.7499V24.2499ZM7.18162 21.0238C7.23845 22.8154 8.70818 24.2499 10.5133 24.2499V22.7499C9.52068 22.7499 8.7121 21.9609 8.68086 20.9762L7.18162 21.0238ZM7.93124 20.25H2.00161V21.75H7.93124V20.25ZM2.00161 20.25C1.80434 20.25 1.68478 20.0322 1.7907 19.8658L0.525201 19.0605C-0.21617 20.2255 0.620702 21.75 2.00161 21.75V20.25ZM1.7907 19.8658L2.85135 18.199L1.58585 17.3937L0.525201 19.0605L1.7907 19.8658ZM2.85135 18.199C2.87069 18.1686 2.89583 18.1435 2.92498 18.1243L2.10163 16.8705C1.8977 17.0044 1.72087 17.1815 1.58585 17.3937L2.85135 18.199ZM1.76331 10.5V17.4974H3.26331V10.5H1.76331ZM7.31087 3.06763C4.10419 4.01654 1.76331 6.98392 1.76331 10.5H3.26331C3.26331 7.66645 5.14954 5.2715 7.7365 4.50597L7.31087 3.06763Z" fill="#69E6A2"/>
</svg>
