<svg width="28" height="24" viewBox="0 0 28 24" fill="none" xmlns="http://www.w3.org/2000/svg">
<path fill-rule="evenodd" clip-rule="evenodd" d="M1.44727 10.0642L17.2205 20.9911H27.4599C27.5555 19.3617 25.8241 16.3328 21.2355 16.1028C20.8634 15.4899 20.5094 14.895 20.173 14.32L18.536 15.1384C18.0421 15.3854 17.4414 15.1852 17.1944 14.6912C16.9474 14.1972 17.1476 13.5966 17.6416 13.3496L19.1751 12.5828C19.0614 12.3812 18.9501 12.1826 18.8412 11.9871L17.0367 12.8894C16.5427 13.1364 15.942 12.9362 15.695 12.4422C15.448 11.9482 15.6483 11.3475 16.1422 11.1006L17.8812 10.2311C17.7709 10.0256 17.6639 9.82482 17.5601 9.62897L15.5373 10.6404C15.0433 10.8874 14.4426 10.6872 14.1957 10.1932C13.9487 9.6992 14.1489 9.09853 14.6429 8.85154L16.6363 7.85485C16.3527 7.30121 16.1052 6.81034 15.8923 6.38793L15.892 6.38738L15.892 6.38737C15.3722 5.35619 15.0582 4.73309 14.9262 4.60079C12.4407 5.27174 8.61691 5.75099 6.8962 0C-1.42059 2.87549 1.16048 9.86556 1.44727 10.0642Z" fill="#D9D9D9"/>
<path d="M17.1786 21.9414H26.4636C27.0159 21.9414 27.4636 22.3891 27.4636 22.9414V22.9984C27.4636 23.5507 27.0159 23.9984 26.4636 23.9984H17.1786V21.9414Z" fill="#D9D9D9"/>
<path d="M0.480892 11.4553C0.746486 11.0701 1.27409 10.9731 1.65932 11.2387L18.1455 22.6048L17.1837 23.9999L0.697524 12.6338C0.312288 12.3682 0.215297 11.8406 0.480892 11.4553Z" fill="#D9D9D9"/>
</svg>
