<svg width="28" height="24" viewBox="0 0 28 24" fill="none" xmlns="http://www.w3.org/2000/svg">
<path fill-rule="evenodd" clip-rule="evenodd" d="M1.44733 10.0642L17.2206 20.9911H27.4599C27.5555 19.3617 25.8241 16.3328 21.2356 16.1028C20.8635 15.4899 20.5094 14.895 20.173 14.32L18.5361 15.1384C18.0421 15.3854 17.4415 15.1852 17.1945 14.6912C16.9475 14.1972 17.1477 13.5966 17.6417 13.3496L19.1752 12.5828C19.0614 12.3812 18.9501 12.1826 18.8413 11.9871L17.0367 12.8894C16.5427 13.1364 15.9421 12.9362 15.6951 12.4422C15.4481 11.9482 15.6483 11.3475 16.1423 11.1006L17.8813 10.2311C17.771 10.0256 17.664 9.82482 17.5602 9.62897L15.5374 10.6404C15.0434 10.8874 14.4427 10.6872 14.1957 10.1932C13.9487 9.6992 14.149 9.09853 14.6429 8.85154L16.6363 7.85485C16.3527 7.30121 16.1053 6.81034 15.8924 6.38793L15.8921 6.38738L15.8921 6.38737C15.3723 5.35619 15.0582 4.73309 14.9263 4.60079C12.4408 5.27174 8.61697 5.75099 6.89626 0C-1.42053 2.87549 1.16054 9.86556 1.44733 10.0642Z" fill="#69E6A2"/>
<path d="M17.1785 21.9414H26.4635C27.0158 21.9414 27.4635 22.3891 27.4635 22.9414V22.9984C27.4635 23.5507 27.0158 23.9984 26.4635 23.9984H17.1785V21.9414Z" fill="#69E6A2"/>
<path d="M0.481014 11.4553C0.746608 11.0701 1.27421 10.9731 1.65945 11.2387L18.1456 22.6048L17.1838 23.9999L0.697646 12.6338C0.31241 12.3682 0.215419 11.8406 0.481014 11.4553Z" fill="#69E6A2"/>
</svg>
