<svg width="20" height="24" viewBox="0 0 20 24" fill="none" xmlns="http://www.w3.org/2000/svg">
<path fill-rule="evenodd" clip-rule="evenodd" d="M0 4V20C0 22.2091 1.79086 24 4 24H14V19.6667V19.3333V18.6667H19.3333V4C19.3333 1.79086 17.5425 0 15.3333 0H4C1.79086 0 0 1.79086 0 4ZM19.0313 19.6667H15V24H15.1042L19.0313 19.6667ZM5 5.25C4.58579 5.25 4.25 5.58579 4.25 6C4.25 6.41421 4.58579 6.75 5 6.75H15C15.4142 6.75 15.75 6.41421 15.75 6C15.75 5.58579 15.4142 5.25 15 5.25H5ZM4.25 11C4.25 10.5858 4.58579 10.25 5 10.25H15C15.4142 10.25 15.75 10.5858 15.75 11C15.75 11.4142 15.4142 11.75 15 11.75H5C4.58579 11.75 4.25 11.4142 4.25 11ZM5 15.25C4.58579 15.25 4.25 15.5858 4.25 16C4.25 16.4142 4.58579 16.75 5 16.75H12C12.4142 16.75 12.75 16.4142 12.75 16C12.75 15.5858 12.4142 15.25 12 15.25H5Z" fill="#69E6A2"/>
</svg>
