<svg width="21" height="21" viewBox="0 0 21 21" fill="none" xmlns="http://www.w3.org/2000/svg">
<circle cx="10.5" cy="10.5" r="10.5" fill="#69E6A2"/>
<path d="M9.62207 6.60979C10.0011 5.91484 10.9989 5.91485 11.3779 6.60979L12.2976 8.29619C12.4415 8.55992 12.6962 8.74502 12.9915 8.80031L14.8796 9.15388C15.6576 9.29958 15.966 10.2486 15.4222 10.8238L14.1025 12.2196C13.8961 12.4379 13.7988 12.7374 13.8375 13.0353L14.0847 14.9402C14.1865 15.7252 13.3792 16.3117 12.6641 15.9723L10.9288 15.1486C10.6575 15.0197 10.3425 15.0197 10.0712 15.1486L8.33586 15.9723C7.62077 16.3117 6.81349 15.7252 6.91535 14.9402L7.16253 13.0353C7.20118 12.7374 7.10387 12.4379 6.8975 12.2196L5.57784 10.8238C5.03402 10.2486 5.34238 9.29958 6.12042 9.15388L8.0085 8.80031C8.30376 8.74502 8.55853 8.55992 8.70236 8.29619L9.62207 6.60979Z" fill="#FFF79C"/>
</svg>
