<svg width="21" height="21" viewBox="0 0 21 21" fill="none" xmlns="http://www.w3.org/2000/svg">
<circle cx="10.5" cy="10.5" r="10.5" fill="#69E6A2"/>
<path d="M9.44913 12.724C9.13713 10.631 11.3601 9.799 11.3601 8.564C11.3601 7.901 10.9311 7.498 10.2551 7.498C9.68313 7.498 9.22813 7.784 8.79913 8.226L7.74613 7.251C8.42213 6.484 9.34513 5.951 10.4761 5.951C12.0491 5.951 13.1931 6.757 13.1931 8.434C13.1931 10.28 10.9311 10.891 11.1261 12.724H9.44913ZM10.2941 16.182C9.60513 16.182 9.11113 15.649 9.11113 14.934C9.11113 14.219 9.60513 13.699 10.2941 13.699C10.9701 13.699 11.4901 14.219 11.4901 14.934C11.4901 15.649 10.9701 16.182 10.2941 16.182Z" fill="white"/>
</svg>
