<svg width="336" height="188" viewBox="0 0 336 188" fill="none" xmlns="http://www.w3.org/2000/svg">
<g filter="url(#filter0_d_686_2)">
<path fill-rule="evenodd" clip-rule="evenodd" d="M87.1174 106.459C87.1246 106.287 87.1282 106.113 87.1282 105.939C87.1282 99.1488 81.624 93.6445 74.8341 93.6445C69.6282 93.6445 65.1781 96.8802 63.3851 101.45C62.0108 100.409 60.2981 99.7917 58.4411 99.7917C54.6223 99.7917 51.4135 102.403 50.5034 105.938H49.2206C44.1282 105.938 40 110.066 40 115.159C40 120.251 44.1282 124.379 49.2206 124.379H84.0539C89.1463 124.379 93.2745 120.251 93.2745 115.159C93.2745 111.14 90.7039 107.722 87.1174 106.459Z" fill="white"/>
<circle cx="156.538" cy="82.1188" r="78.1188" fill="#6381DE"/>
<path fill-rule="evenodd" clip-rule="evenodd" d="M198.368 148.992C191.161 151.169 183.517 152.34 175.6 152.34C132.189 152.34 96.9979 117.149 96.9979 73.7381C96.9979 45.4162 111.977 20.5929 134.445 6.7583C102.137 16.5201 78.6115 46.5188 78.6115 82.0121C78.6115 125.423 113.803 160.614 157.213 160.614C172.302 160.614 186.398 156.362 198.368 148.992Z" fill="#536DBD"/>
<mask id="mask0_686_2" style="mask-type:luminance" maskUnits="userSpaceOnUse" x="78" y="4" width="157" height="157">
<circle cx="156.538" cy="82.1188" r="78.1188" fill="white"/>
</mask>
<g mask="url(#mask0_686_2)">
<path d="M126.493 78.5132C121.685 61.2068 89.236 77.7119 73.6122 88.1278V128.99C95.2451 145.015 139.713 176.583 144.52 174.66C150.529 172.256 148.126 173.458 138.511 159.036C128.896 144.614 142.116 134.999 144.52 126.587C146.924 118.174 142.116 116.972 131.3 109.761C120.484 102.55 132.502 100.146 126.493 78.5132Z" fill="#69E6A2"/>
<path d="M161.346 76.1093C154.615 64.5717 164.15 57.6813 169.759 55.6782C175.908 52.0724 182.978 59.284 191.391 55.6782C199.804 52.0724 193.795 43.6599 197.4 35.2471C201.006 26.8343 199.804 24.4307 219.033 26.8343C234.416 28.7573 238.262 58.0819 238.262 72.5038C233.455 77.3111 222.879 86.2046 219.033 83.3203C214.226 79.7148 215.428 76.1093 204.611 86.9257C193.795 97.7422 201.006 102.549 197.4 113.366C193.795 124.182 175.767 116.971 176.969 96.5404C178.171 76.1093 169.759 90.5312 161.346 76.1093Z" fill="#69E6A2"/>
</g>
<ellipse cx="153.976" cy="76.9964" rx="3.84191" ry="6.40318" fill="#121212"/>
<ellipse cx="187.273" cy="76.9964" rx="3.84191" ry="6.40318" fill="#121212"/>
<path d="M178.87 83.3992H162.38C161.275 83.3992 160.382 84.3015 160.614 85.3816C161.326 88.7067 163.849 93.6443 170.625 93.6443C177.569 93.6443 180.101 89.2311 180.712 85.3906C180.886 84.2997 179.975 83.3992 178.87 83.3992Z" fill="#443333"/>
<path fill-rule="evenodd" clip-rule="evenodd" d="M278.522 119.057C278.533 118.784 278.539 118.509 278.539 118.233C278.539 107.482 269.824 98.7673 259.073 98.7673C250.831 98.7673 243.786 103.89 240.946 111.125C238.771 109.477 236.06 108.5 233.12 108.5C227.073 108.5 221.992 112.636 220.552 118.233H218.521C210.458 118.233 203.921 124.769 203.921 132.832C203.921 140.895 210.458 147.432 218.521 147.432H273.673C281.736 147.432 288.273 140.895 288.273 132.832C288.273 126.469 284.202 121.057 278.522 119.057Z" fill="white"/>
</g>
<path d="M15.1298 16.9215C15.5779 15.3001 17.7058 14.9226 18.6843 16.291L22.0336 20.9748C22.4274 21.5255 23.073 21.8396 23.7494 21.8094L29.5017 21.5534C31.1823 21.4786 32.1988 23.3857 31.1998 24.7391L27.7802 29.3718C27.3782 29.9165 27.279 30.6276 27.5166 31.2616L29.5377 36.6532C30.1282 38.2284 28.6286 39.7845 27.0326 39.2526L21.57 37.432C20.9277 37.218 20.2207 37.3434 19.6913 37.7653L15.1881 41.3536C13.8724 42.4019 11.9291 41.4565 11.9418 39.7743L11.9852 34.0165C11.9903 33.3395 11.6526 32.7059 11.0877 32.3327L6.28346 29.1587C4.87987 28.2314 5.17846 26.091 6.78224 25.5833L12.2717 23.8453C12.9171 23.641 13.4154 23.124 13.5958 22.4714L15.1298 16.9215Z" fill="white"/>
<path d="M315.364 145.144C316.793 144.257 318.613 145.423 318.403 147.092L317.374 155.301C317.289 155.973 317.551 156.642 318.068 157.078L324.39 162.415C325.676 163.5 325.129 165.591 323.477 165.907L315.351 167.465C314.686 167.593 314.131 168.048 313.876 168.675L310.754 176.337C310.119 177.895 307.962 178.021 307.15 176.547L303.158 169.301C302.831 168.708 302.227 168.32 301.551 168.271L293.3 167.67C291.622 167.548 290.836 165.535 291.986 164.307L297.644 158.271C298.107 157.777 298.289 157.083 298.127 156.425L296.149 148.392C295.747 146.758 297.418 145.388 298.941 146.103L306.43 149.619C307.043 149.907 307.76 149.865 308.335 149.508L315.364 145.144Z" fill="white"/>
<path d="M47.0183 11.1312C56.3587 8.89373 61.7109 28.8901 54.4748 25.1634C49.9978 22.8576 61.7533 14.9887 69.5597 20.4256" stroke="white" stroke-width="2" stroke-linecap="round"/>
<path d="M274.572 92.598C274.812 79.1727 303.865 78.433 296.26 87.0495C291.554 92.3806 284.989 73.8328 295.119 65.0001" stroke="white" stroke-width="2" stroke-linecap="round"/>
<circle cx="42" cy="34" r="4" fill="white"/>
<circle cx="265" cy="75" r="4" fill="white"/>
<circle cx="61.5" cy="56.5" r="2.5" fill="white"/>
<circle cx="309.5" cy="56.5" r="2.5" fill="white"/>
<defs>
<filter id="filter0_d_686_2" x="36" y="0" width="256.273" height="164.614" filterUnits="userSpaceOnUse" color-interpolation-filters="sRGB">
<feFlood flood-opacity="0" result="BackgroundImageFix"/>
<feColorMatrix in="SourceAlpha" type="matrix" values="0 0 0 0 0 0 0 0 0 0 0 0 0 0 0 0 0 0 127 0" result="hardAlpha"/>
<feOffset/>
<feGaussianBlur stdDeviation="2"/>
<feComposite in2="hardAlpha" operator="out"/>
<feColorMatrix type="matrix" values="0 0 0 0 0 0 0 0 0 0 0 0 0 0 0 0 0 0 0.25 0"/>
<feBlend mode="normal" in2="BackgroundImageFix" result="effect1_dropShadow_686_2"/>
<feBlend mode="normal" in="SourceGraphic" in2="effect1_dropShadow_686_2" result="shape"/>
</filter>
</defs>
</svg>
