<svg width="39" height="34" viewBox="0 0 39 34" fill="none" xmlns="http://www.w3.org/2000/svg">
<path fill-rule="evenodd" clip-rule="evenodd" d="M36.7493 14.2162L14.4689 29.6509H0.0053215C-0.129711 27.3492 2.31594 23.0708 8.79751 22.7459C9.40053 21.7526 9.96995 20.7929 10.5068 19.8704L12.7952 21.0146C13.2892 21.2616 13.8898 21.0614 14.1368 20.5674C14.3838 20.0734 14.1836 19.4728 13.6896 19.2258L11.5046 18.1333C11.8084 17.5975 12.1001 17.0766 12.3801 16.5712L14.913 17.8377C15.407 18.0847 16.0077 17.8845 16.2547 17.3905C16.5017 16.8965 16.3014 16.2959 15.8075 16.0489L13.3401 14.8152C13.6366 14.2656 13.9171 13.7389 14.182 13.2364L17.031 14.6609C17.5249 14.9078 18.1256 14.7076 18.3726 14.2136C18.6196 13.7197 18.4194 13.119 17.9254 12.872L15.1058 11.4622C15.5863 10.5284 15.9983 9.71099 16.3454 9.02243L16.3454 9.02238L16.3455 9.02217C17.0797 7.56575 17.5233 6.68569 17.7097 6.49882C21.2205 7.44657 26.6218 8.12353 29.0524 0C40.8002 4.06176 37.1544 13.9355 36.7493 14.2162Z" fill="url(#paint0_linear_640_551)"/>
<path d="M14.5281 30.9932H1.00007C0.447787 30.9932 7.24792e-05 31.4409 7.24792e-05 31.9932V32.8988C7.24792e-05 33.4511 0.447788 33.8988 1.00007 33.8988H14.5281V30.9932Z" fill="url(#paint1_linear_640_551)"/>
<path d="M38.0026 16.0191C37.6891 15.5644 37.0664 15.4499 36.6117 15.7634L13.1623 31.9302L14.5208 33.9008L37.9703 17.734C38.425 17.4205 38.5395 16.7978 38.226 16.3431L38.0026 16.0191Z" fill="url(#paint2_linear_640_551)"/>
<defs>
<linearGradient id="paint0_linear_640_551" x1="18.7992" y1="0" x2="18.7992" y2="29.6509" gradientUnits="userSpaceOnUse">
<stop stop-color="#69E6A2"/>
<stop offset="1" stop-color="#9BC9FE"/>
</linearGradient>
<linearGradient id="paint1_linear_640_551" x1="7.2641" y1="30.9932" x2="7.2641" y2="33.8988" gradientUnits="userSpaceOnUse">
<stop stop-color="#69E6A2"/>
<stop offset="1" stop-color="#9BC9FE"/>
</linearGradient>
<linearGradient id="paint2_linear_640_551" x1="25.2986" y1="23.563" x2="26.6572" y2="25.5336" gradientUnits="userSpaceOnUse">
<stop stop-color="#69E6A2"/>
<stop offset="1" stop-color="#9BC9FE"/>
</linearGradient>
</defs>
</svg>
