<svg width="65" height="44" viewBox="0 0 65 44" fill="none" xmlns="http://www.w3.org/2000/svg">
<g filter="url(#filter0_d_640_560)">
<path fill-rule="evenodd" clip-rule="evenodd" d="M14.6459 27.15C14.6475 27.111 14.6484 27.0718 14.6484 27.0324C14.6484 25.4983 13.4047 24.2546 11.8706 24.2546C10.6944 24.2546 9.68887 24.9857 9.28375 26.0183C8.97323 25.7831 8.58624 25.6435 8.16666 25.6435C7.30382 25.6435 6.5788 26.2336 6.37318 27.0323H6.08334C4.93274 27.0323 4 27.965 4 29.1156C4 30.2662 4.93275 31.199 6.08334 31.199H13.9537C15.1043 31.199 16.0371 30.2662 16.0371 29.1156C16.0371 28.2077 15.4563 27.4354 14.6459 27.15Z" fill="white"/>
<circle cx="17.6505" cy="17.6505" r="17.6505" transform="matrix(-1 0 0 1 51.4154 4)" fill="#6381DE"/>
<path fill-rule="evenodd" clip-rule="evenodd" d="M24.3135 36.7602C25.9419 37.2522 27.669 37.5167 29.4578 37.5167C39.2662 37.5167 47.2175 29.5654 47.2175 19.757C47.2175 13.3579 43.833 7.74914 38.7565 4.62329C46.0564 6.82892 51.3718 13.607 51.3718 21.6265C51.3718 31.4349 43.4205 39.3862 33.6121 39.3862C30.2029 39.3862 27.0181 38.4256 24.3135 36.7602Z" fill="#536DBD"/>
<mask id="mask0_640_560" style="mask-type:luminance" maskUnits="userSpaceOnUse" x="16" y="4" width="36" height="36">
<circle cx="17.6505" cy="17.6505" r="17.6505" transform="matrix(-1 0 0 1 51.4154 4)" fill="white"/>
</mask>
<g mask="url(#mask0_640_560)">
<path d="M40.5534 20.8357C41.6396 16.9254 48.9714 20.6547 52.5015 23.0081V32.2408C47.6136 35.8614 37.5664 42.994 36.4802 42.5595C35.1225 42.0165 35.6656 42.288 37.8379 39.0294C40.0103 35.7709 37.0233 33.5985 36.4802 31.6977C35.9371 29.7969 37.0233 29.5253 39.4672 27.896C41.9111 26.2667 39.1957 25.7236 40.5534 20.8357Z" fill="#69E6A2"/>
<path d="M32.6785 20.2925C34.1992 17.6856 32.0449 16.1288 30.7777 15.6762C29.3883 14.8615 27.7908 16.4909 25.8899 15.6762C23.9891 14.8615 25.3468 12.9607 24.5322 11.0599C23.7176 9.15908 23.9891 8.61598 19.6444 9.15908C16.1686 9.59355 15.2996 16.2193 15.2996 19.4779C16.3858 20.564 18.7754 22.5735 19.6444 21.9218C20.7305 21.1071 20.459 20.2925 22.9029 22.7364C25.3468 25.1803 23.7176 26.2665 24.5322 28.7104C25.3468 31.1544 29.42 29.5251 29.1485 24.9088C28.8769 20.2925 30.7777 23.5511 32.6785 20.2925Z" fill="#69E6A2"/>
</g>
<ellipse cx="0.868059" cy="1.44677" rx="0.868059" ry="1.44677" transform="matrix(-1 0 0 1 35.2117 19.0464)" fill="#121212"/>
<ellipse cx="0.868059" cy="1.44677" rx="0.868059" ry="1.44677" transform="matrix(-1 0 0 1 27.6884 19.0464)" fill="#121212"/>
<path d="M30.2671 21.9399H30.8967C32.0013 21.9399 32.9293 22.9839 32.106 23.7202C31.7565 24.0328 31.2648 24.2548 30.5819 24.2548C29.8642 24.2548 29.3551 24.0461 29.0007 23.7367C28.1687 23.0102 29.1625 21.9399 30.2671 21.9399Z" fill="#443333"/>
<path fill-rule="evenodd" clip-rule="evenodd" d="M57.8927 29.9965C57.8953 29.9348 57.8966 29.8727 57.8966 29.8103C57.8966 27.3812 55.9275 25.4121 53.4984 25.4121C51.6362 25.4121 50.0443 26.5695 49.4027 28.2042C48.9111 27.832 48.2986 27.6112 47.6344 27.6112C46.2682 27.6112 45.1202 28.5456 44.7947 29.8103H44.3357C42.514 29.8103 41.0371 31.2871 41.0371 33.1089C41.0371 34.9307 42.514 36.4075 44.3357 36.4075H56.7972C58.619 36.4075 60.0958 34.9307 60.0958 33.1089C60.0958 31.6711 59.176 30.4482 57.8927 29.9965Z" fill="white"/>
</g>
<defs>
<filter id="filter0_d_640_560" x="0" y="0" width="64.0958" height="43.3862" filterUnits="userSpaceOnUse" color-interpolation-filters="sRGB">
<feFlood flood-opacity="0" result="BackgroundImageFix"/>
<feColorMatrix in="SourceAlpha" type="matrix" values="0 0 0 0 0 0 0 0 0 0 0 0 0 0 0 0 0 0 127 0" result="hardAlpha"/>
<feOffset/>
<feGaussianBlur stdDeviation="2"/>
<feComposite in2="hardAlpha" operator="out"/>
<feColorMatrix type="matrix" values="0 0 0 0 0 0 0 0 0 0 0 0 0 0 0 0 0 0 0.25 0"/>
<feBlend mode="normal" in2="BackgroundImageFix" result="effect1_dropShadow_640_560"/>
<feBlend mode="normal" in="SourceGraphic" in2="effect1_dropShadow_640_560" result="shape"/>
</filter>
</defs>
</svg>
