<svg width="17" height="22" viewBox="0 0 17 22" fill="none" xmlns="http://www.w3.org/2000/svg">
<path d="M8.5 21.2499C10.676 21.2499 12.6167 19.9322 14.0018 18.1218C15.3882 16.3098 16.25 13.9658 16.25 11.8333C16.25 7.55304 12.7802 4.08325 8.5 4.08325C4.21979 4.08325 0.75 7.55304 0.75 11.8333C0.75 13.9658 1.61177 16.3098 2.99815 18.1218C4.38331 19.9322 6.32396 21.2499 8.5 21.2499Z" fill="#FF7878" stroke="white" stroke-width="0.5"/>
<path fill-rule="evenodd" clip-rule="evenodd" d="M7.66666 20.9321C11.4166 20.3206 14.3333 15.6937 14.3333 11.8333C14.3333 7.97279 11.4166 4.79356 7.66666 4.37903C7.94027 4.34878 8.21832 4.33325 8.49999 4.33325C12.6421 4.33325 16 7.69112 16 11.8333C16 15.9754 12.6421 20.9999 8.49999 20.9999C8.21832 20.9999 7.94027 20.9767 7.66666 20.9321Z" fill="#FF5F5F"/>
<path fill-rule="evenodd" clip-rule="evenodd" d="M10.7731 1.26175C11.0887 1.59666 11.0732 2.12406 10.7382 2.43974C10.4415 2.71946 9.98087 3.30059 9.66802 4.06108C9.359 4.81227 9.21109 5.69425 9.45655 6.6197C9.57454 7.06455 9.30956 7.52083 8.8647 7.63882C8.41985 7.75681 7.96357 7.49183 7.84558 7.04697C7.4848 5.68671 7.71579 4.42583 8.12668 3.42701C8.53374 2.43751 9.13403 1.6615 9.59507 1.22693C9.92998 0.911248 10.4574 0.926837 10.7731 1.26175Z" fill="#69E6A2" stroke="white" stroke-width="0.3" stroke-linecap="round"/>
<path d="M4.27196 10.6575C4.15749 11.2059 3.96098 11.6757 3.74176 11.992C3.63196 12.1505 3.5208 12.2641 3.4174 12.3318C3.3147 12.399 3.22967 12.415 3.16086 12.4006C3.09205 12.3862 3.02051 12.3376 2.95328 12.2349C2.88558 12.1315 2.82917 11.9829 2.79192 11.7938C2.71754 11.4162 2.7254 10.907 2.83987 10.3586C2.95434 9.81023 3.15085 9.3404 3.37007 9.02409C3.47987 8.86568 3.59103 8.75203 3.69443 8.68436C3.79713 8.61716 3.88217 8.60117 3.95097 8.61553C4.01978 8.62989 4.09132 8.67857 4.15856 8.78125C4.22625 8.88462 4.28267 9.03326 4.31991 9.22237C4.39429 9.59997 4.38643 10.1092 4.27196 10.6575Z" fill="white" stroke="white" stroke-width="0.3"/>
</svg>
